# xmcd
#
# Track frame offsets:
# 150
# 20717
# 38725
# 56737
# 73612
# 94633
# 115255
# 134562
# 148131
# 166056
# 181258
# 202933
# 215263
# 230657
# 252321
# 266401
# 289191
# 304554
#
# Disc length: 4297 seconds
#
#
# Revision: 0
# Processed by: cddbd v1.5.1PL2 Copyright (c) Steve Scherf et al.
# Submitted via: FreeRIP 2.945 
#
DISCID=0810c712
DTITLE=Promo Only - November 98
DYEAR=1998
DGENRE=Acid
TTITLE0=When You Believe (From The Prince Of Egypt) - Whitney Houston and Mariah Carey
TTITLE1=Doo Wop (that Thing) - Lauryn Hill
TTITLE2=A Little More Time On You - N Shit
TTITLE3=Hands - Jewel
TTITLE4=You Get What You Gve -New Radicals
TTITLE5=All I Have To Give - Backdoor Faggots
TTITLE6=Every Time - Janet
TTITLE7=The Sweetest Thing - U2
TTITLE8=Smoke - Natalie Imbruglia
TTITLE9=How Do I Deal - Jennifer Love Hewitt
TTITLE10=When I See You Smile - Uncle Sam
TTITLE11=Never There - Cake
TTITLE12=It's The Things You Do - Five
TTITLE13=I'm Your Angel - R. Kelly and Celine Dion
TTITLE14=Pretty Fly (For A White Guy) - The Offspring
TTITLE15=Believe In You  - Amanda Marshall
TTITLE16=No Mercy - Khaleel
TTITLE17=Let The Music Heal Your Soul - Bravo Al Stars
EXTD=
EXTT0=
EXTT1=
EXTT2=
EXTT3=
EXTT4=
EXTT5=
EXTT6=
EXTT7=
EXTT8=
EXTT9=
EXTT10=
EXTT11=
EXTT12=
EXTT13=
EXTT14=
EXTT15=
EXTT16=
EXTT17=
PLAYORDER=
